<?xml version="1.0" standalone="no"?>
<!DOCTYPE svg PUBLIC "-//W3C//DTD SVG 20010904//EN"
 "http://www.w3.org/TR/2001/REC-SVG-20010904/DTD/svg10.dtd">
<svg version="1.0" xmlns="http://www.w3.org/2000/svg"
 width="168.000000pt" height="168.000000pt" viewBox="0 0 168.000000 168.000000"
 preserveAspectRatio="xMidYMid meet">
<metadata>
Created by potrace 1.11, written by Peter Selinger 2001-2013
</metadata>
<g transform="translate(0.000000,168.000000) scale(0.100000,-0.100000)"
fill="#000000" stroke="none">
<path d="M96 1464 c-7 -18 12 -29 87 -49 75 -19 93 -33 125 -97 45 -91 382
-872 447 -1036 62 -154 71 -172 92 -172 13 0 26 6 28 13 51 150 155 425 189
500 8 18 74 181 147 362 147 368 161 400 187 414 10 5 48 15 85 21 55 10 67
15 67 31 0 13 -7 19 -22 20 -13 0 -69 1 -124 2 l-102 2 -37 -120 c-35 -112
-79 -241 -124 -360 -11 -27 -36 -97 -56 -155 -63 -177 -118 -321 -122 -317 -1
2 13 50 33 105 33 92 35 104 22 120 -20 23 -48 97 -47 125 0 12 6 1 13 -26 7
-26 17 -51 21 -55 8 -7 5 7 -15 87 -6 25 -9 54 -7 65 3 13 5 7 7 -14 1 -28 74
338 94 480 5 29 4 31 -4 10 -5 -14 -26 -124 -47 -245 -21 -121 -39 -213 -41
-204 -1 8 13 115 33 238 19 124 33 227 30 229 -3 3 -5 3 -5 0 0 -2 -27 -177
-60 -389 -34 -211 -58 -395 -55 -409 4 -20 3 -22 -5 -10 -9 12 -10 5 -8 -27 2
-23 0 -39 -3 -37 -4 2 -11 -24 -15 -59 l-8 -62 -11 60 c-7 36 -14 54 -18 45
-4 -8 -4 -5 -1 7 3 12 -27 192 -66 400 -86 464 -91 486 -96 481 -2 -3 21 -137
52 -299 58 -310 60 -332 19 -384 -9 -13 -7 -2 6 28 l21 49 -62 286 c-35 158
-67 296 -72 307 -11 26 -11 23 52 -263 28 -128 49 -239 47 -245 -2 -6 -32 103
-67 243 -34 140 -67 262 -72 270 -7 11 -8 10 -4 -5 73 -288 116 -469 114 -477
-2 -5 -34 98 -72 229 -38 131 -73 245 -78 253 -12 20 -11 16 62 -233 34 -115
60 -213 58 -218 -2 -5 -38 97 -82 226 -43 130 -80 235 -82 233 -2 -3 36 -123
85 -269 48 -145 90 -257 93 -249 3 8 3 4 1 -9 -2 -13 -10 -33 -17 -43 -12 -17
-25 8 -119 229 -58 136 -116 276 -129 310 l-23 63 -140 1 c-77 0 -152 2 -167
3 -15 1 -30 -4 -32 -10z m621 -516 c-3 -8 -6 -5 -6 6 -1 11 2 17 5 13 3 -3 4
-12 1 -19z m52 -59 c1 13 4 21 7 18 12 -11 -18 -96 -40 -114 -21 -18 -21 -18
-3 3 9 11 17 27 17 35 0 12 -2 11 -10 -1 -8 -11 -9 -7 -4 15 l6 30 -17 -23
c-9 -12 -13 -28 -9 -35 5 -9 4 -9 -5 -1 -10 9 -10 17 2 35 8 13 19 40 23 59
l8 35 12 -40 c9 -30 13 -34 13 -16z m11 -73 c-6 -20 -15 -38 -19 -41 -5 -2 -1
15 8 40 18 52 28 53 11 1z m211 -60 c5 -6 9 -17 9 -25 -1 -9 -9 2 -20 24 -11
22 -19 49 -19 60 1 11 5 4 11 -15 5 -19 14 -39 19 -44z m-162 -7 c0 -9 -8 -27
-20 -40 l-21 -24 16 25 c9 13 16 34 16 45 0 16 -4 14 -20 -12 -11 -18 -22 -33
-25 -33 -2 0 4 15 15 33 11 17 20 43 21 57 1 23 2 23 9 -5 4 -16 8 -37 9 -46z
m135 -14 c5 -22 4 -26 -4 -15 -5 8 -10 24 -10 34 0 26 6 18 14 -19z m-132 -57
c-6 -6 -7 0 -4 19 5 21 7 23 10 9 2 -10 0 -22 -6 -28z m115 0 c-3 -8 -6 -5 -6
6 -1 11 2 17 5 13 3 -3 4 -12 1 -19z m-106 -41 c-10 -9 -11 -8 -5 6 3 10 9 15
12 12 3 -3 0 -11 -7 -18z"/>
<path d="M742 895 c0 -11 3 -29 8 -40 11 -25 11 1 0 35 -6 20 -8 21 -8 5z"/>
<path d="M473 1428 c3 -7 53 -136 113 -286 140 -356 161 -350 29 9 -90 244
-114 304 -115 288 0 -4 18 -55 40 -114 56 -149 45 -154 -14 -6 -26 67 -50 121
-53 121 -3 0 -3 -6 0 -12z m147 -317 c17 -46 29 -85 27 -87 -5 -5 -67 153 -67
168 0 21 9 3 40 -81z m50 -136 c0 -5 -5 -3 -10 5 -5 8 -10 20 -10 25 0 6 5 3
10 -5 5 -8 10 -19 10 -25z"/>
<path d="M1107 1373 c-89 -397 -109 -505 -97 -532 6 -15 8 -39 5 -53 -4 -15
-1 -29 7 -36 11 -9 36 51 132 326 66 185 121 344 123 352 4 13 3 13 -5 0 -5
-8 -32 -78 -58 -155 -27 -77 -50 -133 -51 -125 -2 8 17 75 42 149 24 74 43
136 41 139 -9 8 -156 -466 -151 -484 5 -16 4 -15 -5 2 -9 16 1 64 54 249 36
126 64 230 62 233 -2 2 -7 -5 -10 -15 -103 -346 -146 -519 -137 -540 16 -35
13 -42 -5 -13 -12 20 -14 21 -11 5 3 -11 8 -29 12 -40 4 -13 1 -12 -9 5 -17
28 -22 9 -5 -22 7 -14 8 -18 0 -14 -5 4 -15 23 -21 44 -11 42 -12 66 -1 38 5
-14 29 65 75 250 37 148 69 278 73 289 3 11 2 17 -2 13 -4 -4 -38 -127 -75
-275 -38 -147 -69 -261 -69 -253 -1 8 24 129 54 269 30 140 53 256 51 259 -2
2 -11 -27 -19 -65z m28 -323 c-15 -45 -29 -80 -31 -78 -2 2 9 41 23 86 15 45
29 80 31 77 2 -2 -8 -40 -23 -85z m-46 -135 c0 -5 -4 -3 -10 5 -8 11 -9 8 -5
-15 5 -24 4 -26 -4 -13 -6 10 -7 30 -4 45 7 25 8 25 15 8 4 -11 8 -24 8 -30z"/>
</g>
</svg>
